# xmcd
#
# Track frame offsets: 
#        150
#        15403
#        30774
#        44888
#        60077
#        76151
#        94278
#        108406
#        124104
#        139554
#        155888
#        172309
#        186890
#        202004
#        215569
#        233636
#        250295
#        265716
#        278929
#        298497
#
# Disc length: 4156 seconds
#
# Revision: 2
# Processed by: cddbd v1.5.2PL0 Copyright (c) Steve Scherf et al.
# Submitted via: ExactAudioCopy v1.0b1
#
DISCID=27103a14
DTITLE=Various Artist - Популярная 20 Радиодвадцатка 6
DYEAR=2007
DGENRE=Pop
TTITLE0=Фабрика - Зажигают Огоньки
TTITLE1=И. Билык и Бондарчук - Напополам
TTITLE2=Т. Повалий - За Тобой
TTITLE3=Вика Дайнеко - Фильм Не О Любви
TTITLE4=Город 312 - Девочка, Которая Хотела Счастья
TTITLE5=А. Агурбаш - Я Буду Жить Для Тебя
TTITLE6=Bosson and Лолита - Небо В Глазах
TTITLE7=A'Studio - Бегу К Тебе
TTITLE8=Н. Могилевская - Этот Танец
TTITLE9=В. Меладзе - Сахара Не Надо
TTITLE10=Чай Вдвоём - Москва С.Н.В.
TTITLE11=Трофим - Московская Песня
TTITLE12=Mr.Credo - Мимоза
TTITLE13=DJ Грув - Ералаш 2007
TTITLE14=Высокосный Год - Звони
TTITLE15=К. Орбакайте - Я Нарисую
TTITLE16=Н. Валевская - Без Тебя
TTITLE17=В. Козловский - Красота-Разлука
TTITLE18=Reflex - Если Небо Не За Нас
TTITLE19=Потап и Н. Каменских - Не Пара
EXTD=
EXTT0=
EXTT1=
EXTT2=
EXTT3=
EXTT4=
EXTT5=
EXTT6=
EXTT7=
EXTT8=
EXTT9=
EXTT10=
EXTT11=
EXTT12=
EXTT13=
EXTT14=
EXTT15=
EXTT16=
EXTT17=
EXTT18=
EXTT19=
PLAYORDER=
